<svg xmlns="http://www.w3.org/2000/svg" xmlns:xlink="http://www.w3.org/1999/xlink" width="375" viewBox="0 0 375 375" height="375" version="1.0"><defs><clipPath id="a"><path d="M 167 151 L 217 151 L 217 179 L 167 179 Z M 167 151"/></clipPath><clipPath id="b"><path d="M 167.535156 178.957031 L 185.046875 178.957031 C 191.152344 178.957031 196.179688 178.820312 200.308594 178.152344 C 207.851562 176.945312 212.339844 173.933594 214.539062 166.742188 C 215.707031 162.832031 216.246094 157.757812 216.246094 151.015625 C 198.601562 152.003906 167.527344 155.234375 167.527344 178.960938 Z M 167.535156 178.957031"/></clipPath><clipPath id="d"><path d="M 167 151 L 217 151 L 217 179 L 167 179 Z M 167 151"/></clipPath><clipPath id="e"><path d="M 167.535156 178.957031 L 174.675781 178.957031 C 179.074219 160.132812 198.570312 153.839844 216.253906 151.011719 C 198.605469 152 167.535156 155.230469 167.535156 178.957031 Z M 167.535156 178.957031"/></clipPath><clipPath id="g"><path d="M 167 90.195312 L 239.289062 90.195312 L 239.289062 123 L 167 123 Z M 167 90.195312"/></clipPath><clipPath id="h"><path d="M 167.398438 122.300781 L 201.121094 122.300781 C 223.976562 122.171875 234.796875 118.351562 238.121094 103.386719 C 238.921875 99.792969 239.289062 95.527344 239.289062 90.492188 C 222.402344 91.570312 168.296875 89.101562 167.398438 122.300781 Z M 167.398438 122.300781"/></clipPath><clipPath id="j"><path d="M 167 90.195312 L 239.289062 90.195312 L 239.289062 123 L 167 123 Z M 167 90.195312"/></clipPath><clipPath id="k"><path d="M 167.398438 122.300781 L 177.007812 122.300781 C 183.113281 98.261719 218.046875 93.367188 239.289062 90.492188 C 222.402344 91.570312 168.296875 89.101562 167.398438 122.300781 Z M 167.398438 122.300781"/></clipPath><clipPath id="m"><path d="M 135.789062 90.195312 L 239.289062 90.195312 L 239.289062 220.695312 L 135.789062 220.695312 Z M 135.789062 90.195312"/></clipPath><clipPath id="n"><path d="M 135.789062 111.746094 L 135.789062 219.929688 C 136.464844 219.523438 137.183594 219.207031 137.941406 218.984375 C 137.8125 218.605469 137.753906 218.21875 137.765625 217.816406 C 137.761719 217.546875 137.789062 217.277344 137.839844 217.011719 C 137.894531 216.742188 137.972656 216.484375 138.074219 216.234375 C 138.179688 215.984375 138.304688 215.746094 138.457031 215.519531 C 138.609375 215.292969 138.777344 215.082031 138.972656 214.890625 C 139.164062 214.699219 139.371094 214.527344 139.597656 214.378906 C 139.824219 214.226562 140.0625 214.101562 140.3125 213.996094 C 140.5625 213.894531 140.820312 213.816406 141.089844 213.761719 C 141.355469 213.710938 141.625 213.683594 141.894531 213.683594 C 142.121094 213.683594 142.34375 213.730469 142.566406 213.730469 C 142.429688 213.351562 142.371094 212.960938 142.386719 212.5625 C 142.390625 211.980469 142.527344 211.429688 142.796875 210.914062 C 143.066406 210.398438 143.441406 209.976562 143.914062 209.640625 C 141.304688 208.113281 142.386719 205.195312 144.632812 204.617188 L 144.632812 204.390625 C 144.636719 204.152344 144.683594 203.921875 144.773438 203.703125 C 144.867188 203.484375 144.996094 203.289062 145.167969 203.121094 C 145.335938 202.953125 145.53125 202.824219 145.753906 202.730469 C 145.972656 202.640625 146.203125 202.59375 146.441406 202.59375 C 146.625 202.605469 146.804688 202.632812 146.980469 202.683594 L 150.066406 154.558594 L 141.445312 159.230469 L 141.445312 149.125 L 145.710938 145.574219 C 145.140625 144.371094 144.664062 143.128906 144.289062 141.847656 C 143.910156 140.566406 143.632812 139.265625 143.460938 137.945312 C 143.285156 136.621094 143.214844 135.292969 143.25 133.957031 C 143.28125 132.625 143.417969 131.300781 143.660156 129.988281 C 143.898438 128.675781 144.242188 127.390625 144.683594 126.132812 C 145.121094 124.871094 145.660156 123.65625 146.289062 122.480469 C 146.921875 121.304688 147.640625 120.1875 148.449219 119.125 C 149.253906 118.058594 150.136719 117.066406 151.097656 116.140625 L 151.683594 101.945312 L 152.265625 116.140625 C 153.503906 117.339844 154.609375 118.652344 155.582031 120.074219 C 156.554688 121.492188 157.378906 122.996094 158.050781 124.585938 C 158.722656 126.171875 159.230469 127.808594 159.570312 129.496094 C 159.914062 131.183594 160.085938 132.890625 160.085938 134.613281 C 160.105469 138.457031 159.28125 142.109375 157.617188 145.574219 L 161.925781 149.125 L 161.925781 159.230469 L 153.300781 154.558594 L 156.351562 202.632812 C 156.421875 202.59375 156.5 202.582031 156.578125 202.585938 C 156.816406 202.589844 157.042969 202.636719 157.261719 202.730469 C 157.480469 202.824219 157.675781 202.953125 157.84375 203.121094 C 158.011719 203.289062 158.144531 203.480469 158.238281 203.699219 C 158.332031 203.917969 158.378906 204.144531 158.386719 204.382812 C 160.851562 204.652344 162.199219 208.070312 159.460938 209.640625 C 159.929688 209.980469 160.296875 210.410156 160.566406 210.921875 C 160.832031 211.4375 160.972656 211.980469 160.988281 212.5625 C 160.988281 213.007812 160.914062 213.441406 160.765625 213.863281 C 161.113281 213.738281 161.472656 213.679688 161.839844 213.683594 C 162.113281 213.683594 162.382812 213.710938 162.648438 213.761719 C 162.914062 213.8125 163.171875 213.890625 163.421875 213.996094 C 163.675781 214.097656 163.914062 214.226562 164.140625 214.378906 C 164.363281 214.527344 164.574219 214.699219 164.765625 214.890625 C 164.957031 215.082031 165.128906 215.292969 165.28125 215.519531 C 165.429688 215.742188 165.558594 215.984375 165.660156 216.234375 C 165.765625 216.484375 165.84375 216.742188 165.894531 217.011719 C 165.949219 217.277344 165.972656 217.546875 165.972656 217.816406 C 165.96875 218.308594 165.894531 218.789062 165.75 219.253906 C 166.386719 219.53125 166.984375 219.875 167.542969 220.289062 L 167.542969 178.957031 C 167.542969 155.234375 198.617188 152 216.261719 151.011719 L 167.535156 151.011719 L 167.398438 122.300781 C 168.296875 89.101562 222.402344 91.570312 239.289062 90.492188 C 203.902344 90.40625 195.550781 90.3125 160.171875 90.222656 C 147.28125 90.179688 135.789062 97.859375 135.789062 111.746094 Z M 162.144531 200.347656 C 162.382812 200.347656 162.613281 200.394531 162.832031 200.484375 C 163.054688 200.578125 163.246094 200.707031 163.414062 200.875 C 163.582031 201.042969 163.714844 201.238281 163.804688 201.457031 C 163.894531 201.679688 163.941406 201.90625 163.941406 202.144531 C 163.941406 202.382812 163.894531 202.613281 163.804688 202.832031 C 163.714844 203.054688 163.582031 203.246094 163.414062 203.414062 C 163.246094 203.585938 163.054688 203.714844 162.832031 203.804688 C 162.613281 203.894531 162.382812 203.941406 162.144531 203.941406 C 161.90625 203.941406 161.679688 203.894531 161.457031 203.804688 C 161.238281 203.714844 161.042969 203.585938 160.875 203.414062 C 160.707031 203.246094 160.578125 203.054688 160.488281 202.832031 C 160.394531 202.613281 160.351562 202.382812 160.351562 202.144531 C 160.351562 201.90625 160.394531 201.679688 160.488281 201.457031 C 160.578125 201.238281 160.707031 201.042969 160.875 200.875 C 161.042969 200.707031 161.238281 200.578125 161.457031 200.484375 C 161.679688 200.394531 161.90625 200.347656 162.144531 200.347656 Z M 140.90625 200.347656 C 141.144531 200.347656 141.375 200.394531 141.59375 200.488281 C 141.816406 200.578125 142.007812 200.707031 142.175781 200.875 C 142.34375 201.046875 142.476562 201.238281 142.566406 201.460938 C 142.65625 201.679688 142.703125 201.910156 142.703125 202.148438 C 142.703125 202.386719 142.65625 202.617188 142.5625 202.835938 C 142.472656 203.058594 142.339844 203.25 142.171875 203.417969 C 142.003906 203.585938 141.808594 203.714844 141.589844 203.808594 C 141.367188 203.898438 141.136719 203.941406 140.898438 203.941406 C 140.660156 203.941406 140.433594 203.894531 140.210938 203.800781 C 139.992188 203.710938 139.800781 203.578125 139.632812 203.410156 C 139.464844 203.242188 139.335938 203.046875 139.246094 202.824219 C 139.15625 202.605469 139.109375 202.375 139.113281 202.136719 C 139.109375 201.898438 139.15625 201.667969 139.246094 201.449219 C 139.335938 201.226562 139.46875 201.03125 139.636719 200.863281 C 139.804688 200.695312 140 200.566406 140.21875 200.476562 C 140.4375 200.382812 140.667969 200.339844 140.90625 200.339844 Z M 162.863281 209.769531 C 163.019531 209.769531 163.167969 209.796875 163.3125 209.855469 C 163.457031 209.917969 163.582031 210 163.691406 210.109375 C 163.800781 210.21875 163.886719 210.347656 163.945312 210.492188 C 164.003906 210.636719 164.03125 210.785156 164.03125 210.941406 C 164.027344 211.09375 163.996094 211.242188 163.9375 211.382812 C 163.878906 211.523438 163.792969 211.652344 163.683594 211.757812 C 163.574219 211.867188 163.449219 211.953125 163.308594 212.011719 C 163.167969 212.074219 163.019531 212.105469 162.863281 212.105469 C 162.710938 212.109375 162.558594 212.078125 162.417969 212.019531 C 162.273438 211.960938 162.144531 211.878906 162.035156 211.769531 C 161.925781 211.660156 161.84375 211.53125 161.78125 211.386719 C 161.722656 211.246094 161.695312 211.09375 161.695312 210.941406 C 161.691406 210.785156 161.71875 210.632812 161.773438 210.488281 C 161.832031 210.339844 161.917969 210.210938 162.027344 210.101562 C 162.136719 209.992188 162.265625 209.90625 162.410156 209.847656 C 162.558594 209.792969 162.707031 209.765625 162.863281 209.769531 Z M 140.320312 209.769531 C 140.480469 209.765625 140.632812 209.792969 140.78125 209.847656 C 140.925781 209.90625 141.058594 209.992188 141.171875 210.101562 C 141.285156 210.210938 141.371094 210.339844 141.433594 210.484375 C 141.496094 210.628906 141.527344 210.78125 141.527344 210.941406 C 141.519531 211.09375 141.484375 211.242188 141.421875 211.378906 C 141.359375 211.519531 141.273438 211.644531 141.160156 211.75 C 141.050781 211.855469 140.925781 211.9375 140.78125 211.996094 C 140.640625 212.054688 140.492188 212.082031 140.335938 212.082031 C 140.183594 212.082031 140.035156 212.054688 139.894531 211.996094 C 139.75 211.9375 139.625 211.855469 139.511719 211.75 C 139.402344 211.644531 139.316406 211.519531 139.25 211.378906 C 139.1875 211.242188 139.152344 211.09375 139.148438 210.941406 C 139.144531 210.785156 139.175781 210.632812 139.234375 210.488281 C 139.292969 210.34375 139.378906 210.21875 139.488281 210.109375 C 139.597656 209.996094 139.726562 209.914062 139.871094 209.855469 C 140.015625 209.796875 140.167969 209.769531 140.320312 209.769531 Z M 140.320312 209.769531"/></clipPath><clipPath id="p"><path d="M 146 123 L 157 123 L 157 133 L 146 133 Z M 146 123"/></clipPath><clipPath id="q"><path d="M 151.683594 123.554688 C 151.992188 123.554688 152.300781 123.585938 152.605469 123.648438 C 152.910156 123.707031 153.203125 123.796875 153.488281 123.914062 C 153.777344 124.035156 154.046875 124.179688 154.304688 124.351562 C 154.5625 124.523438 154.800781 124.71875 155.019531 124.9375 C 155.238281 125.160156 155.433594 125.398438 155.609375 125.65625 C 155.78125 125.914062 155.925781 126.183594 156.042969 126.472656 C 156.164062 126.757812 156.25 127.050781 156.3125 127.355469 C 156.371094 127.660156 156.402344 127.96875 156.402344 128.277344 C 156.402344 128.589844 156.371094 128.894531 156.3125 129.199219 C 156.25 129.503906 156.164062 129.796875 156.042969 130.085938 C 155.925781 130.371094 155.78125 130.644531 155.609375 130.902344 C 155.433594 131.160156 155.238281 131.398438 155.019531 131.617188 C 154.800781 131.835938 154.5625 132.03125 154.304688 132.203125 C 154.046875 132.375 153.777344 132.519531 153.488281 132.640625 C 153.203125 132.757812 152.910156 132.847656 152.605469 132.910156 C 152.300781 132.96875 151.992188 133 151.683594 133 C 151.375 133 151.066406 132.96875 150.761719 132.910156 C 150.460938 132.847656 150.164062 132.757812 149.878906 132.640625 C 149.589844 132.519531 149.320312 132.375 149.0625 132.203125 C 148.804688 132.03125 148.566406 131.835938 148.347656 131.617188 C 148.128906 131.398438 147.933594 131.160156 147.761719 130.902344 C 147.589844 130.644531 147.441406 130.371094 147.324219 130.085938 C 147.207031 129.796875 147.117188 129.503906 147.054688 129.199219 C 146.996094 128.894531 146.964844 128.589844 146.964844 128.277344 C 146.964844 127.96875 146.996094 127.660156 147.054688 127.355469 C 147.117188 127.050781 147.203125 126.757812 147.324219 126.46875 C 147.441406 126.183594 147.585938 125.910156 147.757812 125.652344 C 147.929688 125.394531 148.125 125.15625 148.347656 124.9375 C 148.566406 124.71875 148.804688 124.523438 149.0625 124.351562 C 149.320312 124.179688 149.589844 124.03125 149.878906 123.914062 C 150.164062 123.796875 150.460938 123.707031 150.761719 123.644531 C 151.066406 123.585938 151.375 123.554688 151.683594 123.554688 Z M 151.683594 123.554688" clip-rule="evenodd"/></clipPath><clipPath id="s"><path d="M 138 154 L 152 154 L 152 220.695312 L 138 220.695312 Z M 138 154"/></clipPath><linearGradient x1="158.06" gradientTransform="matrix(.2008 0 0 .20092 135.788 90.224)" xmlns:xlink="http://www.w3.org/1999/xlink" y1="372.09" x2="400.68" gradientUnits="userSpaceOnUse" y2="372.09" xlink:type="simple" xlink:actuate="onLoad" id="c" xlink:show="other"><stop stop-color="#250055" offset="0"/><stop stop-color="#250055" offset=".004"/><stop stop-color="#260056" offset=".008"/><stop stop-color="#260057" offset=".012"/><stop stop-color="#270057" offset=".016"/><stop stop-color="#270058" offset=".02"/><stop stop-color="#280058" offset=".023"/><stop stop-color="#280059" offset=".027"/><stop stop-color="#290059" offset=".031"/><stop stop-color="#29005A" offset=".035"/><stop stop-color="#29005B" offset=".039"/><stop stop-color="#2A005B" offset=".043"/><stop stop-color="#2A005C" offset=".047"/><stop stop-color="#2B005C" offset=".051"/><stop stop-color="#2B005D" offset=".055"/><stop stop-color="#2C005E" offset=".059"/><stop stop-color="#2C005E" offset=".063"/><stop stop-color="#2C005F" offset=".066"/><stop stop-color="#2D005F" offset=".07"/><stop stop-color="#2D0060" offset=".074"/><stop stop-color="#2E0060" offset=".078"/><stop stop-color="#2E0061" offset=".082"/><stop stop-color="#2F0062" offset=".086"/><stop stop-color="#2F0062" offset=".09"/><stop stop-color="#300063" offset=".094"/><stop stop-color="#300063" offset=".098"/><stop stop-color="#300064" offset=".102"/><stop stop-color="#310064" offset=".105"/><stop stop-color="#310065" offset=".109"/><stop stop-color="#320066" offset=".113"/><stop stop-color="#320066" offset=".117"/><stop stop-color="#330067" offset=".121"/><stop stop-color="#330067" offset=".125"/><stop stop-color="#340068" offset=".129"/><stop stop-color="#340068" offset=".133"/><stop stop-color="#340069" offset=".137"/><stop stop-color="#35006A" offset=".141"/><stop stop-color="#35006A" offset=".145"/><stop stop-color="#36006B" offset=".148"/><stop stop-color="#36006B" offset=".152"/><stop stop-color="#37006C" offset=".156"/><stop stop-color="#37006C" offset=".16"/><stop stop-color="#38006D" offset=".164"/><stop stop-color="#38006E" offset=".168"/><stop stop-color="#38006E" offset=".172"/><stop stop-color="#39006F" offset=".176"/><stop stop-color="#39006F" offset=".18"/><stop stop-color="#3A0070" offset=".184"/><stop stop-color="#3A0071" offset=".188"/><stop stop-color="#3B0071" offset=".191"/><stop stop-color="#3B0072" offset=".195"/><stop stop-color="#3C0072" offset=".199"/><stop stop-color="#3C0073" offset=".203"/><stop stop-color="#3C0073" offset=".207"/><stop stop-color="#3D0074" offset=".211"/><stop stop-color="#3D0075" offset=".215"/><stop stop-color="#3E0075" offset=".219"/><stop stop-color="#3E0076" offset=".223"/><stop stop-color="#3F0076" offset=".227"/><stop stop-color="#3F0077" offset=".23"/><stop stop-color="#400077" offset=".234"/><stop stop-color="#400078" offset=".238"/><stop stop-color="#400079" offset=".242"/><stop stop-color="#410079" offset=".246"/><stop stop-color="#41007A" offset=".25"/><stop stop-color="#42007A" offset=".254"/><stop stop-color="#42007B" offset=".258"/><stop stop-color="#43007B" offset=".262"/><stop stop-color="#43007C" offset=".266"/><stop stop-color="#44007D" offset=".27"/><stop stop-color="#44007D" offset=".273"/><stop stop-color="#44007E" offset=".277"/><stop stop-color="#45007E" offset=".281"/><stop stop-color="#45007F" offset=".285"/><stop stop-color="#46007F" offset=".289"/><stop stop-color="#460080" offset=".293"/><stop stop-color="#470081" offset=".297"/><stop stop-color="#470081" offset=".301"/><stop stop-color="#480082" offset=".305"/><stop stop-color="#480082" offset=".309"/><stop stop-color="#480083" offset=".313"/><stop stop-color="#490083" offset=".316"/><stop stop-color="#490084" offset=".32"/><stop stop-color="#4A0085" offset=".324"/><stop stop-color="#4A0085" offset=".328"/><stop stop-color="#4B0086" offset=".332"/><stop stop-color="#4B0086" offset=".336"/><stop stop-color="#4C0087" offset=".34"/><stop stop-color="#4C0088" offset=".344"/><stop stop-color="#4C0088" offset=".348"/><stop stop-color="#4D0089" offset=".352"/><stop stop-color="#4D0089" offset=".355"/><stop stop-color="#4E008A" offset=".359"/><stop stop-color="#4E008A" offset=".363"/><stop stop-color="#4F008B" offset=".367"/><stop stop-color="#4F008C" offset=".371"/><stop stop-color="#50008C" offset=".375"/><stop stop-color="#50008D" offset=".379"/><stop stop-color="#50008D" offset=".383"/><stop stop-color="#51008E" offset=".387"/><stop stop-color="#51008E" offset=".391"/><stop stop-color="#52008F" offset=".395"/><stop stop-color="#520090" offset=".398"/><stop stop-color="#530090" offset=".402"/><stop stop-color="#530091" offset=".406"/><stop stop-color="#540091" offset=".41"/><stop stop-color="#540092" offset=".414"/><stop stop-color="#540092" offset=".418"/><stop stop-color="#550093" offset=".422"/><stop stop-color="#550094" offset=".426"/><stop stop-color="#560094" offset=".43"/><stop stop-color="#560095" offset=".434"/><stop stop-color="#570095" offset=".438"/><stop stop-color="#570096" offset=".441"/><stop stop-color="#580096" offset=".445"/><stop stop-color="#580097" offset=".449"/><stop stop-color="#580098" offset=".453"/><stop stop-color="#590098" offset=".457"/><stop stop-color="#590099" offset=".461"/><stop stop-color="#5A0099" offset=".465"/><stop stop-color="#5A009A" offset=".469"/><stop stop-color="#5B009B" offset=".473"/><stop stop-color="#5B009B" offset=".477"/><stop stop-color="#5B009C" offset=".48"/><stop stop-color="#5C009C" offset=".484"/><stop stop-color="#5C009D" offset=".488"/><stop stop-color="#5D009D" offset=".492"/><stop stop-color="#5D009E" offset=".496"/><stop stop-color="#5E009F" offset=".5"/><stop stop-color="#5E009F" offset=".504"/><stop stop-color="#5F00A0" offset=".508"/><stop stop-color="#5F00A0" offset=".512"/><stop stop-color="#5F00A1" offset=".516"/><stop stop-color="#6000A1" offset=".52"/><stop stop-color="#6000A2" offset=".523"/><stop stop-color="#6100A3" offset=".527"/><stop stop-color="#6100A3" offset=".531"/><stop stop-color="#6200A4" offset=".535"/><stop stop-color="#6200A4" offset=".539"/><stop stop-color="#6300A5" offset=".543"/><stop stop-color="#6300A5" offset=".547"/><stop stop-color="#6300A6" offset=".551"/><stop stop-color="#6400A7" offset=".555"/><stop stop-color="#6400A7" offset=".559"/><stop stop-color="#6500A8" offset=".563"/><stop stop-color="#6500A8" offset=".566"/><stop stop-color="#6600A9" offset=".57"/><stop stop-color="#6600A9" offset=".574"/><stop stop-color="#6700AA" offset=".578"/><stop stop-color="#6700AB" offset=".582"/><stop stop-color="#6700AB" offset=".586"/><stop stop-color="#6800AC" offset=".59"/><stop stop-color="#6800AC" offset=".594"/><stop stop-color="#6900AD" offset=".598"/><stop stop-color="#6900AD" offset=".602"/><stop stop-color="#6A00AE" offset=".605"/><stop stop-color="#6A00AF" offset=".609"/><stop stop-color="#6B00AF" offset=".613"/><stop stop-color="#6B00B0" offset=".617"/><stop stop-color="#6B00B0" offset=".621"/><stop stop-color="#6C00B1" offset=".625"/><stop stop-color="#6C00B2" offset=".629"/><stop stop-color="#6D00B2" offset=".633"/><stop stop-color="#6D00B3" offset=".637"/><stop stop-color="#6E00B3" offset=".641"/><stop stop-color="#6E00B4" offset=".645"/><stop stop-color="#6F00B4" offset=".648"/><stop stop-color="#6F00B5" offset=".652"/><stop stop-color="#6F00B6" offset=".656"/><stop stop-color="#7000B6" offset=".66"/><stop stop-color="#7000B7" offset=".664"/><stop stop-color="#7100B7" offset=".668"/><stop stop-color="#7100B8" offset=".672"/><stop stop-color="#7200B8" offset=".676"/><stop stop-color="#7200B9" offset=".68"/><stop stop-color="#7300BA" offset=".684"/><stop stop-color="#7300BA" offset=".688"/><stop stop-color="#7300BB" offset=".691"/><stop stop-color="#7400BB" offset=".695"/><stop stop-color="#7400BC" offset=".699"/><stop stop-color="#7500BC" offset=".703"/><stop stop-color="#7500BD" offset=".707"/><stop stop-color="#7600BE" offset=".711"/><stop stop-color="#7600BE" offset=".715"/><stop stop-color="#7700BF" offset=".719"/><stop stop-color="#7700BF" offset=".723"/><stop stop-color="#7700C0" offset=".727"/><stop stop-color="#7800C0" offset=".73"/><stop stop-color="#7800C1" offset=".734"/><stop stop-color="#7900C2" offset=".738"/><stop stop-color="#7900C2" offset=".742"/><stop stop-color="#7A00C3" offset=".746"/><stop stop-color="#7A00C3" offset=".75"/><stop stop-color="#7B00C4" offset=".754"/><stop stop-color="#7B00C5" offset=".758"/><stop stop-color="#7B00C5" offset=".762"/><stop stop-color="#7C00C6" offset=".766"/><stop stop-color="#7C00C6" offset=".77"/><stop stop-color="#7D00C7" offset=".773"/><stop stop-color="#7D00C7" offset=".777"/><stop stop-color="#7E00C8" offset=".781"/><stop stop-color="#7E00C9" offset=".785"/><stop stop-color="#7F00C9" offset=".789"/><stop stop-color="#7F00CA" offset=".793"/><stop stop-color="#7F00CA" offset=".797"/><stop stop-color="#8000CB" offset=".801"/><stop stop-color="#8000CB" offset=".805"/><stop stop-color="#8100CC" offset=".809"/><stop stop-color="#8100CD" offset=".813"/><stop stop-color="#8200CD" offset=".816"/><stop stop-color="#8200CE" offset=".82"/><stop stop-color="#8300CE" offset=".824"/><stop stop-color="#8300CF" offset=".828"/><stop stop-color="#8300CF" offset=".832"/><stop stop-color="#8400D0" offset=".836"/><stop stop-color="#8400D1" offset=".84"/><stop stop-color="#8500D1" offset=".844"/><stop stop-color="#8500D2" offset=".848"/><stop stop-color="#8600D2" offset=".852"/><stop stop-color="#8600D3" offset=".855"/><stop stop-color="#8600D3" offset=".859"/><stop stop-color="#8700D4" offset=".863"/><stop stop-color="#8700D5" offset=".867"/><stop stop-color="#8800D5" offset=".871"/><stop stop-color="#8800D6" offset=".875"/><stop stop-color="#8900D6" offset=".879"/><stop stop-color="#8900D7" offset=".883"/><stop stop-color="#8A00D7" offset=".887"/><stop stop-color="#8A00D8" offset=".891"/><stop stop-color="#8A00D9" offset=".895"/><stop stop-color="#8B00D9" offset=".898"/><stop stop-color="#8B00DA" offset=".902"/><stop stop-color="#8C00DA" offset=".906"/><stop stop-color="#8C00DB" offset=".91"/><stop stop-color="#8D00DC" offset=".914"/><stop stop-color="#8D00DC" offset=".918"/><stop stop-color="#8E00DD" offset=".922"/><stop stop-color="#8E00DD" offset=".926"/><stop stop-color="#8E00DE" offset=".93"/><stop stop-color="#8F00DE" offset=".934"/><stop stop-color="#8F00DF" offset=".938"/><stop stop-color="#9000E0" offset=".941"/><stop stop-color="#9000E0" offset=".945"/><stop stop-color="#9100E1" offset=".949"/><stop stop-color="#9100E1" offset=".953"/><stop stop-color="#9200E2" offset=".957"/><stop stop-color="#9200E2" offset=".961"/><stop stop-color="#9200E3" offset=".965"/><stop stop-color="#9300E4" offset=".969"/><stop stop-color="#9300E4" offset=".973"/><stop stop-color="#9400E5" offset=".977"/><stop stop-color="#9400E5" offset=".98"/><stop stop-color="#9500E6" offset=".984"/><stop stop-color="#9500E6" offset=".988"/><stop stop-color="#9600E7" offset=".992"/><stop stop-color="#9600E8" offset=".996"/><stop stop-color="#9600E8" offset="1"/></linearGradient><linearGradient x1="158.09" gradientTransform="matrix(.2008 0 0 .20092 135.788 90.224)" xmlns:xlink="http://www.w3.org/1999/xlink" y1="372.09" x2="400.71" gradientUnits="userSpaceOnUse" y2="372.09" xlink:type="simple" xlink:actuate="onLoad" id="f" xlink:show="other"><stop stop-color="#250055" offset="0"/><stop stop-color="#250055" offset=".5"/><stop stop-color="#250055" offset=".75"/><stop stop-color="#250055" offset=".813"/><stop stop-color="#250055" offset=".844"/><stop stop-color="#250055" offset=".859"/><stop stop-color="#250055" offset=".867"/><stop stop-color="#260057" offset=".871"/><stop stop-color="#270057" offset=".875"/><stop stop-color="#270058" offset=".879"/><stop stop-color="#280059" offset=".883"/><stop stop-color="#280059" offset=".887"/><stop stop-color="#29005A" offset=".891"/><stop stop-color="#29005B" offset=".895"/><stop stop-color="#2A005B" offset=".898"/><stop stop-color="#2A005C" offset=".902"/><stop stop-color="#2B005D" offset=".906"/><stop stop-color="#2B005D" offset=".91"/><stop stop-color="#2C005E" offset=".914"/><stop stop-color="#2C005F" offset=".918"/><stop stop-color="#2D005F" offset=".922"/><stop stop-color="#2D0060" offset=".926"/><stop stop-color="#2E0061" offset=".93"/><stop stop-color="#2F0061" offset=".934"/><stop stop-color="#2F0062" offset=".938"/><stop stop-color="#300063" offset=".941"/><stop stop-color="#300063" offset=".945"/><stop stop-color="#310064" offset=".949"/><stop stop-color="#310065" offset=".953"/><stop stop-color="#320065" offset=".957"/><stop stop-color="#320066" offset=".961"/><stop stop-color="#330067" offset=".965"/><stop stop-color="#330067" offset=".969"/><stop stop-color="#340068" offset=".973"/><stop stop-color="#340069" offset=".977"/><stop stop-color="#350069" offset=".98"/><stop stop-color="#35006A" offset=".984"/><stop stop-color="#36006B" offset=".988"/><stop stop-color="#36006B" offset=".992"/><stop stop-color="#37006C" offset=".996"/><stop stop-color="#37006D" offset="1"/></linearGradient><linearGradient x1="157.42" gradientTransform="matrix(.2008 0 0 .20092 135.788 90.224)" xmlns:xlink="http://www.w3.org/1999/xlink" y1="80.5" x2="515.42" gradientUnits="userSpaceOnUse" y2="80.5" xlink:type="simple" xlink:actuate="onLoad" id="i" xlink:show="other"><stop stop-color="#FB261E" offset="0"/><stop stop-color="#FA271D" offset=".008"/><stop stop-color="#FA281D" offset=".016"/><stop stop-color="#FA281D" offset=".023"/><stop stop-color="#FA291D" offset=".031"/><stop stop-color="#FA2A1D" offset=".039"/><stop stop-color="#FA2B1D" offset=".047"/><stop stop-color="#FA2C1C" offset=".055"/><stop stop-color="#FA2D1C" offset=".063"/><stop stop-color="#FA2D1C" offset=".07"/><stop stop-color="#F92E1C" offset=".078"/><stop stop-color="#F92F1C" offset=".086"/><stop stop-color="#F9301C" offset=".094"/><stop stop-color="#F9311B" offset=".102"/><stop stop-color="#F9321B" offset=".109"/><stop stop-color="#F9331B" offset=".117"/><stop stop-color="#F9331B" offset=".125"/><stop stop-color="#F9341B" offset=".133"/><stop stop-color="#F8351A" offset=".141"/><stop stop-color="#F8361A" offset=".148"/><stop stop-color="#F8371A" offset=".156"/><stop stop-color="#F8381A" offset=".164"/><stop stop-color="#F8381A" offset=".172"/><stop stop-color="#F8391A" offset=".18"/><stop stop-color="#F83A19" offset=".188"/><stop stop-color="#F83B19" offset=".195"/><stop stop-color="#F73C19" offset=".203"/><stop stop-color="#F73D19" offset=".211"/><stop stop-color="#F73D19" offset=".219"/><stop stop-color="#F73E19" offset=".227"/><stop stop-color="#F73F18" offset=".234"/><stop stop-color="#F74018" offset=".242"/><stop stop-color="#F74118" offset=".25"/><stop stop-color="#F74218" offset=".258"/><stop stop-color="#F64218" offset=".266"/><stop stop-color="#F64317" offset=".273"/><stop stop-color="#F64417" offset=".281"/><stop stop-color="#F64517" offset=".289"/><stop stop-color="#F64617" offset=".297"/><stop stop-color="#F64717" offset=".305"/><stop stop-color="#F64717" offset=".313"/><stop stop-color="#F64816" offset=".32"/><stop stop-color="#F54916" offset=".328"/><stop stop-color="#F54A16" offset=".336"/><stop stop-color="#F54B16" offset=".344"/><stop stop-color="#F54C16" offset=".352"/><stop stop-color="#F54C16" offset=".359"/><stop stop-color="#F54D15" offset=".367"/><stop stop-color="#F54E15" offset=".375"/><stop stop-color="#F54F15" offset=".383"/><stop stop-color="#F55015" offset=".391"/><stop stop-color="#F45115" offset=".398"/><stop stop-color="#F45115" offset=".406"/><stop stop-color="#F45214" offset=".414"/><stop stop-color="#F45314" offset=".422"/><stop stop-color="#F45414" offset=".43"/><stop stop-color="#F45514" offset=".438"/><stop stop-color="#F45614" offset=".445"/><stop stop-color="#F45613" offset=".453"/><stop stop-color="#F35713" offset=".461"/><stop stop-color="#F35813" offset=".469"/><stop stop-color="#F35913" offset=".477"/><stop stop-color="#F35A13" offset=".484"/><stop stop-color="#F35B13" offset=".492"/><stop stop-color="#F35B12" offset=".5"/><stop stop-color="#F35C12" offset=".508"/><stop stop-color="#F35D12" offset=".516"/><stop stop-color="#F25E12" offset=".523"/><stop stop-color="#F25F12" offset=".531"/><stop stop-color="#F26012" offset=".539"/><stop stop-color="#F26011" offset=".547"/><stop stop-color="#F26111" offset=".555"/><stop stop-color="#F26211" offset=".563"/><stop stop-color="#F26311" offset=".57"/><stop stop-color="#F26411" offset=".578"/><stop stop-color="#F16510" offset=".586"/><stop stop-color="#F16510" offset=".594"/><stop stop-color="#F16610" offset=".602"/><stop stop-color="#F16710" offset=".609"/><stop stop-color="#F16810" offset=".617"/><stop stop-color="#F16910" offset=".625"/><stop stop-color="#F16A0F" offset=".633"/><stop stop-color="#F16B0F" offset=".641"/><stop stop-color="#F06B0F" offset=".648"/><stop stop-color="#F06C0F" offset=".656"/><stop stop-color="#F06D0F" offset=".664"/><stop stop-color="#F06E0F" offset=".672"/><stop stop-color="#F06F0E" offset=".68"/><stop stop-color="#F0700E" offset=".688"/><stop stop-color="#F0700E" offset=".695"/><stop stop-color="#F0710E" offset=".703"/><stop stop-color="#EF720E" offset=".711"/><stop stop-color="#EF730D" offset=".719"/><stop stop-color="#EF740D" offset=".727"/><stop stop-color="#EF750D" offset=".734"/><stop stop-color="#EF750D" offset=".742"/><stop stop-color="#EF760D" offset=".75"/><stop stop-color="#EF770D" offset=".758"/><stop stop-color="#EF780C" offset=".766"/><stop stop-color="#EF790C" offset=".773"/><stop stop-color="#EE7A0C" offset=".781"/><stop stop-color="#EE7A0C" offset=".789"/><stop stop-color="#EE7B0C" offset=".797"/><stop stop-color="#EE7C0C" offset=".805"/><stop stop-color="#EE7D0B" offset=".813"/><stop stop-color="#EE7E0B" offset=".82"/><stop stop-color="#EE7F0B" offset=".828"/><stop stop-color="#EE7F0B" offset=".836"/><stop stop-color="#ED800B" offset=".844"/><stop stop-color="#ED810A" offset=".852"/><stop stop-color="#ED820A" offset=".859"/><stop stop-color="#ED830A" offset=".867"/><stop stop-color="#ED840A" offset=".875"/><stop stop-color="#ED840A" offset=".883"/><stop stop-color="#ED850A" offset=".891"/><stop stop-color="#ED8609" offset=".898"/><stop stop-color="#EC8709" offset=".906"/><stop stop-color="#EC8809" offset=".914"/><stop stop-color="#EC8909" offset=".922"/><stop stop-color="#EC8909" offset=".93"/><stop stop-color="#EC8A09" offset=".938"/><stop stop-color="#EC8B08" offset=".945"/><stop stop-color="#EC8C08" offset=".953"/><stop stop-color="#EC8D08" offset=".961"/><stop stop-color="#EB8E08" offset=".969"/><stop stop-color="#EB8E08" offset=".977"/><stop stop-color="#EB8F08" offset=".984"/><stop stop-color="#EB9007" offset=".992"/><stop stop-color="#EB9107" offset="1"/></linearGradient><linearGradient x1="157.42" gradientTransform="matrix(.2008 0 0 .20092 135.788 90.224)" xmlns:xlink="http://www.w3.org/1999/xlink" y1="80.5" x2="515.42" gradientUnits="userSpaceOnUse" y2="80.5" xlink:type="simple" xlink:actuate="onLoad" id="l" xlink:show="other"><stop stop-color="#FF0824" offset="0"/><stop stop-color="#FF0824" offset=".5"/><stop stop-color="#FF0824" offset=".75"/><stop stop-color="#FF0824" offset=".875"/><stop stop-color="#FF0824" offset=".938"/><stop stop-color="#FF0824" offset=".969"/><stop stop-color="#FF0824" offset=".984"/><stop stop-color="#FF0924" offset=".988"/><stop stop-color="#FF0A24" offset=".992"/><stop stop-color="#FF0A23" offset=".996"/><stop stop-color="#FF0B23" offset="1"/></linearGradient><linearGradient x1="257.71" gradientTransform="matrix(.2008 0 0 .20092 135.788 90.224)" xmlns:xlink="http://www.w3.org/1999/xlink" y1="647.35" x2="257.71" gradientUnits="userSpaceOnUse" y2="-.138" xlink:type="simple" xlink:actuate="onLoad" id="o" xlink:show="other"><stop stop-color="#093456" offset="0"/><stop stop-color="#093557" offset=".008"/><stop stop-color="#093558" offset=".016"/><stop stop-color="#093658" offset=".023"/><stop stop-color="#093759" offset=".031"/><stop stop-color="#09385A" offset=".039"/><stop stop-color="#0A395B" offset=".047"/><stop stop-color="#0A3A5C" offset=".055"/><stop stop-color="#0A3B5D" offset=".063"/><stop stop-color="#0A3B5E" offset=".07"/><stop stop-color="#0A3C5F" offset=".078"/><stop stop-color="#0A3D60" offset=".086"/><stop stop-color="#0B3E61" offset=".094"/><stop stop-color="#0B3F62" offset=".102"/><stop stop-color="#0B4063" offset=".109"/><stop stop-color="#0B4164" offset=".117"/><stop stop-color="#0B4265" offset=".125"/><stop stop-color="#0C4266" offset=".133"/><stop stop-color="#0C4367" offset=".141"/><stop stop-color="#0C4468" offset=".148"/><stop stop-color="#0C4569" offset=".156"/><stop stop-color="#0C4669" offset=".164"/><stop stop-color="#0D476A" offset=".172"/><stop stop-color="#0D486B" offset=".18"/><stop stop-color="#0D486C" offset=".188"/><stop stop-color="#0D496D" offset=".191"/><stop stop-color="#0D4A6E" offset=".195"/><stop stop-color="#0D4A6E" offset=".199"/><stop stop-color="#0D4B6F" offset=".203"/><stop stop-color="#0D4B70" offset=".207"/><stop stop-color="#0E4C70" offset=".211"/><stop stop-color="#0E4C71" offset=".215"/><stop stop-color="#0E4D71" offset=".219"/><stop stop-color="#0E4D72" offset=".223"/><stop stop-color="#0E4E72" offset=".227"/><stop stop-color="#0E4E73" offset=".23"/><stop stop-color="#0E4F73" offset=".234"/><stop stop-color="#0E4F74" offset=".238"/><stop stop-color="#0E5074" offset=".242"/><stop stop-color="#0F5075" offset=".246"/><stop stop-color="#0F5176" offset=".25"/><stop stop-color="#0F5276" offset=".254"/><stop stop-color="#0F5277" offset=".258"/><stop stop-color="#0F5377" offset=".262"/><stop stop-color="#0F5378" offset=".266"/><stop stop-color="#0F5478" offset=".27"/><stop stop-color="#0F5479" offset=".273"/><stop stop-color="#0F5579" offset=".277"/><stop stop-color="#0F557A" offset=".281"/><stop stop-color="#10567A" offset=".285"/><stop stop-color="#10567B" offset=".289"/><stop stop-color="#10577C" offset=".293"/><stop stop-color="#10577C" offset=".297"/><stop stop-color="#10587D" offset=".301"/><stop stop-color="#10587D" offset=".305"/><stop stop-color="#10597E" offset=".309"/><stop stop-color="#10597E" offset=".313"/><stop stop-color="#105A7F" offset=".316"/><stop stop-color="#105A7F" offset=".32"/><stop stop-color="#115B80" offset=".324"/><stop stop-color="#115B80" offset=".328"/><stop stop-color="#115C81" offset=".332"/><stop stop-color="#115C82" offset=".336"/><stop stop-color="#115D82" offset=".34"/><stop stop-color="#115D83" offset=".344"/><stop stop-color="#115E83" offset=".348"/><stop stop-color="#115E84" offset=".352"/><stop stop-color="#115F84" offset=".355"/><stop stop-color="#125F85" offset=".359"/><stop stop-color="#126085" offset=".363"/><stop stop-color="#126086" offset=".367"/><stop stop-color="#126186" offset=".371"/><stop stop-color="#126187" offset=".375"/><stop stop-color="#126288" offset=".379"/><stop stop-color="#126288" offset=".383"/><stop stop-color="#126389" offset=".387"/><stop stop-color="#126389" offset=".391"/><stop stop-color="#12648A" offset=".395"/><stop stop-color="#13648A" offset=".398"/><stop stop-color="#13658B" offset=".402"/><stop stop-color="#13658B" offset=".406"/><stop stop-color="#13668C" offset=".41"/><stop stop-color="#13668C" offset=".414"/><stop stop-color="#13678D" offset=".418"/><stop stop-color="#13678E" offset=".422"/><stop stop-color="#13688E" offset=".426"/><stop stop-color="#13698F" offset=".43"/><stop stop-color="#13698F" offset=".434"/><stop stop-color="#146A90" offset=".438"/><stop stop-color="#146A90" offset=".441"/><stop stop-color="#146B91" offset=".445"/><stop stop-color="#146B91" offset=".449"/><stop stop-color="#146C92" offset=".453"/><stop stop-color="#146C92" offset=".457"/><stop stop-color="#146D93" offset=".461"/><stop stop-color="#146D94" offset=".465"/><stop stop-color="#146E94" offset=".469"/><stop stop-color="#156E95" offset=".473"/><stop stop-color="#156F95" offset=".477"/><stop stop-color="#156F96" offset=".48"/><stop stop-color="#157096" offset=".484"/><stop stop-color="#157097" offset=".488"/><stop stop-color="#157197" offset=".492"/><stop stop-color="#157198" offset=".496"/><stop stop-color="#157298" offset=".5"/><stop stop-color="#157299" offset=".504"/><stop stop-color="#15739A" offset=".508"/><stop stop-color="#16739A" offset=".512"/><stop stop-color="#16749B" offset=".516"/><stop stop-color="#16749B" offset=".52"/><stop stop-color="#16759C" offset=".523"/><stop stop-color="#16759C" offset=".527"/><stop stop-color="#16769D" offset=".531"/><stop stop-color="#16779E" offset=".535"/><stop stop-color="#16779E" offset=".539"/><stop stop-color="#17789F" offset=".543"/><stop stop-color="#1778A0" offset=".547"/><stop stop-color="#1779A0" offset=".551"/><stop stop-color="#177AA1" offset=".555"/><stop stop-color="#177AA2" offset=".559"/><stop stop-color="#177BA2" offset=".563"/><stop stop-color="#177BA3" offset=".566"/><stop stop-color="#177CA4" offset=".57"/><stop stop-color="#187DA4" offset=".574"/><stop stop-color="#187DA5" offset=".578"/><stop stop-color="#187EA6" offset=".582"/><stop stop-color="#187EA6" offset=".586"/><stop stop-color="#187FA7" offset=".59"/><stop stop-color="#1880A8" offset=".594"/><stop stop-color="#1880A8" offset=".598"/><stop stop-color="#1981A9" offset=".602"/><stop stop-color="#1981AA" offset=".605"/><stop stop-color="#1982AA" offset=".609"/><stop stop-color="#1983AB" offset=".613"/><stop stop-color="#1983AC" offset=".617"/><stop stop-color="#1984AC" offset=".621"/><stop stop-color="#1985AD" offset=".625"/><stop stop-color="#1985AE" offset=".629"/><stop stop-color="#1A86AE" offset=".633"/><stop stop-color="#1A86AF" offset=".637"/><stop stop-color="#1A87B0" offset=".641"/><stop stop-color="#1A88B0" offset=".645"/><stop stop-color="#1A88B1" offset=".648"/><stop stop-color="#1A89B2" offset=".652"/><stop stop-color="#1A89B2" offset=".656"/><stop stop-color="#1A8AB3" offset=".66"/><stop stop-color="#1B8BB4" offset=".664"/><stop stop-color="#1B8BB4" offset=".668"/><stop stop-color="#1B8CB5" offset=".672"/><stop stop-color="#1B8CB6" offset=".676"/><stop stop-color="#1B8DB6" offset=".68"/><stop stop-color="#1B8EB7" offset=".684"/><stop stop-color="#1B8EB8" offset=".688"/><stop stop-color="#1C8FB8" offset=".691"/><stop stop-color="#1C90B9" offset=".695"/><stop stop-color="#1C90BA" offset=".699"/><stop stop-color="#1C91BA" offset=".703"/><stop stop-color="#1C91BB" offset=".707"/><stop stop-color="#1C92BB" offset=".711"/><stop stop-color="#1C93BC" offset=".715"/><stop stop-color="#1C93BD" offset=".719"/><stop stop-color="#1D94BD" offset=".723"/><stop stop-color="#1D94BE" offset=".727"/><stop stop-color="#1D95BF" offset=".73"/><stop stop-color="#1D96BF" offset=".734"/><stop stop-color="#1D96C0" offset=".738"/><stop stop-color="#1D97C1" offset=".742"/><stop stop-color="#1D97C1" offset=".746"/><stop stop-color="#1E98C2" offset=".75"/><stop stop-color="#1E99C3" offset=".754"/><stop stop-color="#1E99C3" offset=".758"/><stop stop-color="#1E9AC4" offset=".762"/><stop stop-color="#1E9AC5" offset=".766"/><stop stop-color="#1E9BC5" offset=".77"/><stop stop-color="#1E9CC6" offset=".773"/><stop stop-color="#1E9CC7" offset=".777"/><stop stop-color="#1F9DC7" offset=".781"/><stop stop-color="#1F9EC8" offset=".785"/><stop stop-color="#1F9EC9" offset=".789"/><stop stop-color="#1F9FC9" offset=".793"/><stop stop-color="#1F9FCA" offset=".797"/><stop stop-color="#1FA0CB" offset=".801"/><stop stop-color="#1FA1CB" offset=".805"/><stop stop-color="#20A1CC" offset=".809"/><stop stop-color="#20A2CD" offset=".813"/><stop stop-color="#20A2CD" offset=".816"/><stop stop-color="#20A3CE" offset=".82"/><stop stop-color="#20A4CF" offset=".824"/><stop stop-color="#20A4CF" offset=".828"/><stop stop-color="#20A5D0" offset=".832"/><stop stop-color="#20A5D1" offset=".836"/><stop stop-color="#21A6D1" offset=".84"/><stop stop-color="#21A7D2" offset=".844"/><stop stop-color="#21A7D3" offset=".848"/><stop stop-color="#21A8D3" offset=".852"/><stop stop-color="#21A8D4" offset=".855"/><stop stop-color="#21A9D5" offset=".859"/><stop stop-color="#21AAD5" offset=".863"/><stop stop-color="#22AAD6" offset=".867"/><stop stop-color="#22ABD7" offset=".871"/><stop stop-color="#22ACD7" offset=".875"/><stop stop-color="#22ACD8" offset=".879"/><stop stop-color="#22ADD9" offset=".883"/><stop stop-color="#22ADD9" offset=".887"/><stop stop-color="#22AEDA" offset=".891"/><stop stop-color="#23AFDB" offset=".895"/><stop stop-color="#23AFDC" offset=".898"/><stop stop-color="#23B0DC" offset=".902"/><stop stop-color="#23B1DD" offset=".906"/><stop stop-color="#23B2DE" offset=".91"/><stop stop-color="#23B2DF" offset=".914"/><stop stop-color="#23B3DF" offset=".918"/><stop stop-color="#24B4E0" offset=".922"/><stop stop-color="#24B4E1" offset=".926"/><stop stop-color="#24B5E1" offset=".93"/><stop stop-color="#24B6E2" offset=".934"/><stop stop-color="#24B6E3" offset=".938"/><stop stop-color="#24B7E4" offset=".941"/><stop stop-color="#25B8E4" offset=".945"/><stop stop-color="#25B8E5" offset=".949"/><stop stop-color="#25B9E6" offset=".953"/><stop stop-color="#25BAE7" offset=".957"/><stop stop-color="#25BAE7" offset=".961"/><stop stop-color="#25BBE8" offset=".965"/><stop stop-color="#25BCE9" offset=".969"/><stop stop-color="#26BCEA" offset=".973"/><stop stop-color="#26BDEA" offset=".977"/><stop stop-color="#26BEEB" offset=".98"/><stop stop-color="#26BEEC" offset=".984"/><stop stop-color="#26BFEC" offset=".988"/><stop stop-color="#26C0ED" offset=".992"/><stop stop-color="#26C0EE" offset=".996"/><stop stop-color="#27C1EF" offset="1"/></linearGradient><linearGradient x1="79.16" gradientTransform="matrix(.2008 0 0 .20092 135.788 90.224)" xmlns:xlink="http://www.w3.org/1999/xlink" y1="212.9" x2="79.16" gradientUnits="userSpaceOnUse" y2="165.899" xlink:type="simple" xlink:actuate="onLoad" id="r" xlink:show="other"><stop stop-color="#0F567A" offset="0"/><stop stop-color="#0F567A" offset=".008"/><stop stop-color="#10577B" offset=".016"/><stop stop-color="#10577B" offset=".023"/><stop stop-color="#10587C" offset=".031"/><stop stop-color="#10587D" offset=".039"/><stop stop-color="#10597D" offset=".047"/><stop stop-color="#10597E" offset=".055"/><stop stop-color="#105A7E" offset=".063"/><stop stop-color="#105B7F" offset=".07"/><stop stop-color="#115B80" offset=".078"/><stop stop-color="#115C80" offset=".086"/><stop stop-color="#115C81" offset=".094"/><stop stop-color="#115D82" offset=".102"/><stop stop-color="#115D82" offset=".109"/><stop stop-color="#115E83" offset=".117"/><stop stop-color="#115F83" offset=".125"/><stop stop-color="#115F84" offset=".133"/><stop stop-color="#126085" offset=".141"/><stop stop-color="#126085" offset=".148"/><stop stop-color="#126186" offset=".156"/><stop stop-color="#126186" offset=".164"/><stop stop-color="#126287" offset=".172"/><stop stop-color="#126388" offset=".18"/><stop stop-color="#126388" offset=".188"/><stop stop-color="#136489" offset=".195"/><stop stop-color="#13658A" offset=".203"/><stop stop-color="#13658A" offset=".211"/><stop stop-color="#13668B" offset=".219"/><stop stop-color="#13678C" offset=".227"/><stop stop-color="#13678D" offset=".234"/><stop stop-color="#13688D" offset=".242"/><stop stop-color="#14688E" offset=".25"/><stop stop-color="#14698F" offset=".258"/><stop stop-color="#146A8F" offset=".266"/><stop stop-color="#146A90" offset=".273"/><stop stop-color="#146B91" offset=".281"/><stop stop-color="#146C92" offset=".289"/><stop stop-color="#146C92" offset=".297"/><stop stop-color="#156D93" offset=".305"/><stop stop-color="#156E94" offset=".313"/><stop stop-color="#156E94" offset=".32"/><stop stop-color="#156F95" offset=".328"/><stop stop-color="#157096" offset=".336"/><stop stop-color="#157096" offset=".344"/><stop stop-color="#157197" offset=".352"/><stop stop-color="#157298" offset=".359"/><stop stop-color="#167299" offset=".367"/><stop stop-color="#167399" offset=".375"/><stop stop-color="#16749A" offset=".383"/><stop stop-color="#16749B" offset=".391"/><stop stop-color="#16759B" offset=".398"/><stop stop-color="#16769C" offset=".406"/><stop stop-color="#16769D" offset=".414"/><stop stop-color="#17779E" offset=".422"/><stop stop-color="#17779E" offset=".43"/><stop stop-color="#17789F" offset=".438"/><stop stop-color="#1779A0" offset=".445"/><stop stop-color="#1779A0" offset=".453"/><stop stop-color="#177AA1" offset=".461"/><stop stop-color="#177BA2" offset=".469"/><stop stop-color="#187BA2" offset=".477"/><stop stop-color="#187CA3" offset=".484"/><stop stop-color="#187DA4" offset=".492"/><stop stop-color="#187DA5" offset=".5"/><stop stop-color="#187EA5" offset=".508"/><stop stop-color="#187FA6" offset=".516"/><stop stop-color="#187FA7" offset=".523"/><stop stop-color="#1980A7" offset=".531"/><stop stop-color="#1981A8" offset=".539"/><stop stop-color="#1981A9" offset=".547"/><stop stop-color="#1982AA" offset=".555"/><stop stop-color="#1983AA" offset=".563"/><stop stop-color="#1983AB" offset=".57"/><stop stop-color="#1984AC" offset=".578"/><stop stop-color="#1A85AC" offset=".586"/><stop stop-color="#1A85AD" offset=".594"/><stop stop-color="#1A86AE" offset=".602"/><stop stop-color="#1A86AE" offset=".609"/><stop stop-color="#1A87AF" offset=".617"/><stop stop-color="#1A88B0" offset=".625"/><stop stop-color="#1A88B1" offset=".633"/><stop stop-color="#1B89B1" offset=".641"/><stop stop-color="#1B8AB2" offset=".648"/><stop stop-color="#1B8AB3" offset=".656"/><stop stop-color="#1B8BB3" offset=".664"/><stop stop-color="#1B8CB4" offset=".672"/><stop stop-color="#1B8CB5" offset=".68"/><stop stop-color="#1B8DB6" offset=".688"/><stop stop-color="#1C8EB6" offset=".695"/><stop stop-color="#1C8EB7" offset=".703"/><stop stop-color="#1C8FB8" offset=".711"/><stop stop-color="#1C90B8" offset=".719"/><stop stop-color="#1C90B9" offset=".727"/><stop stop-color="#1C91BA" offset=".734"/><stop stop-color="#1C92BB" offset=".742"/><stop stop-color="#1D93BC" offset=".75"/><stop stop-color="#1D93BD" offset=".758"/><stop stop-color="#1D94BD" offset=".766"/><stop stop-color="#1D95BE" offset=".773"/><stop stop-color="#1D96BF" offset=".781"/><stop stop-color="#1D97C0" offset=".789"/><stop stop-color="#1E97C1" offset=".797"/><stop stop-color="#1E98C2" offset=".805"/><stop stop-color="#1E99C2" offset=".813"/><stop stop-color="#1E9AC3" offset=".82"/><stop stop-color="#1E9AC4" offset=".828"/><stop stop-color="#1E9BC5" offset=".836"/><stop stop-color="#1F9CC6" offset=".844"/><stop stop-color="#1F9DC7" offset=".852"/><stop stop-color="#1F9DC8" offset=".859"/><stop stop-color="#1F9EC8" offset=".867"/><stop stop-color="#1F9FC9" offset=".875"/><stop stop-color="#1FA0CA" offset=".883"/><stop stop-color="#20A1CB" offset=".891"/><stop stop-color="#20A1CC" offset=".898"/><stop stop-color="#20A2CD" offset=".906"/><stop stop-color="#20A3CE" offset=".914"/><stop stop-color="#20A4CE" offset=".922"/><stop stop-color="#21A4CF" offset=".93"/><stop stop-color="#21A5D0" offset=".938"/><stop stop-color="#21A6D1" offset=".945"/><stop stop-color="#21A7D2" offset=".953"/><stop stop-color="#21A8D3" offset=".961"/><stop stop-color="#21A8D3" offset=".969"/><stop stop-color="#22A9D4" offset=".977"/><stop stop-color="#22AAD5" offset=".984"/><stop stop-color="#22ABD6" offset=".992"/><stop stop-color="#22ABD7" offset="1"/></linearGradient></defs><g clip-path="url(#a)"><g clip-path="url(#b)"><path fill="url(#c)" d="M 167.527344 151.015625 L 167.527344 178.960938 L 216.246094 178.960938 L 216.246094 151.015625 Z M 167.527344 151.015625"/></g></g><g clip-path="url(#d)"><g clip-path="url(#e)"><path fill="url(#f)" d="M 167.535156 151.011719 L 167.535156 178.957031 L 216.253906 178.957031 L 216.253906 151.011719 Z M 167.535156 151.011719"/></g></g><g clip-path="url(#g)"><g clip-path="url(#h)"><path fill="url(#i)" d="M 167.398438 90.195312 L 167.398438 122.300781 L 239.289062 122.300781 L 239.289062 90.195312 Z M 167.398438 90.195312"/></g></g><g clip-path="url(#j)"><g clip-path="url(#k)"><path fill="url(#l)" d="M 167.398438 90.195312 L 167.398438 122.300781 L 239.289062 122.300781 L 239.289062 90.195312 Z M 167.398438 90.195312"/></g></g><g clip-path="url(#m)"><g clip-path="url(#n)"><path fill="url(#o)" d="M 135.789062 90.195312 L 135.789062 220.289062 L 239.289062 220.289062 L 239.289062 90.195312 Z M 135.789062 90.195312"/></g></g><g clip-path="url(#p)"><g clip-path="url(#q)"><path fill="url(#r)" d="M 146.964844 123.554688 L 146.964844 133 L 156.402344 133 L 156.402344 123.554688 Z M 146.964844 123.554688"/></g></g><path fill="#FEFEFE" d="M 154.539062 125.296875 C 155.160156 125.792969 155.34375 126.664062 154.910156 127.222656 C 154.414062 127.78125 153.546875 127.71875 152.925781 127.222656 C 152.242188 126.664062 152.054688 125.792969 152.554688 125.234375 C 152.988281 124.738281 153.855469 124.738281 154.539062 125.296875 Z M 154.539062 125.296875" fill-opacity=".486" fill-rule="evenodd"/><g clip-path="url(#s)"><path fill="#CCC" d="M 151.503906 154.585938 C 151.238281 171.613281 151.957031 189.171875 151.691406 206.199219 C 149.019531 205.300781 147.730469 207.773438 148.132812 210.0625 C 150.265625 210.335938 150.84375 210.648438 151.78125 211.59375 C 149.199219 210.605469 146.972656 211.410156 147.109375 214.15625 C 149.199219 215.050781 150 215.5 151.824219 216.804688 C 148.175781 215.90625 144.304688 215.597656 144.570312 220.667969 L 138.386719 220.667969 L 138.386719 220.578125 C 139.046875 220.140625 139.757812 219.808594 140.519531 219.589844 C 140.398438 219.226562 140.339844 218.851562 140.34375 218.464844 C 140.34375 218.195312 140.367188 217.929688 140.417969 217.664062 C 140.46875 217.398438 140.546875 217.140625 140.648438 216.890625 C 140.75 216.636719 140.875 216.402344 141.023438 216.175781 C 141.171875 215.949219 141.339844 215.742188 141.53125 215.546875 C 141.722656 215.355469 141.929688 215.183594 142.152344 215.035156 C 142.378906 214.882812 142.613281 214.753906 142.863281 214.652344 C 143.113281 214.546875 143.371094 214.46875 143.632812 214.414062 C 143.898438 214.359375 144.167969 214.332031 144.4375 214.332031 C 144.660156 214.324219 144.882812 214.339844 145.105469 214.378906 C 144.976562 214 144.917969 213.609375 144.925781 213.210938 C 144.933594 212.625 145.070312 212.070312 145.335938 211.550781 C 145.601562 211.027344 145.972656 210.59375 146.441406 210.246094 C 143.859375 208.761719 144.925781 205.839844 147.152344 205.210938 L 147.152344 205.03125 C 147.152344 204.796875 147.195312 204.566406 147.285156 204.347656 C 147.375 204.128906 147.503906 203.933594 147.671875 203.765625 C 147.835938 203.597656 148.03125 203.46875 148.25 203.375 C 148.464844 203.285156 148.695312 203.238281 148.929688 203.234375 C 149.113281 203.234375 149.292969 203.257812 149.46875 203.308594 Z M 151.503906 154.585938" fill-rule="evenodd"/></g><g fill="#0E4D72"><g><g><path d="M 8.796875 -15.65625 L 8.796875 -12.0625 L 17.546875 -12.0625 L 17.546875 -6.71875 L 8.796875 -6.71875 L 8.796875 0 L 1.703125 0 L 1.703125 -21 L 18.78125 -21 L 18.78125 -15.65625 Z M 8.796875 -15.65625" transform="translate(83.18 256.915)"/></g></g></g><g fill="#0E4D72"><g><g><path d="M 16.015625 -3.65625 L 8.046875 -3.65625 L 6.625 0 L -0.5625 0 L 8.609375 -21 L 15.5625 -21 L 24.75 0 L 17.4375 0 Z M 14.0625 -8.765625 L 12.03125 -14.046875 L 9.984375 -8.765625 Z M 14.0625 -8.765625" transform="translate(109.58 256.915)"/></g></g></g><g fill="#0E4D72"><g><g><path d="M 22.40625 -21 L 22.40625 0 L 15.328125 0 L 15.328125 -7.734375 L 8.796875 -7.734375 L 8.796875 0 L 1.703125 0 L 1.703125 -21 L 8.796875 -21 L 8.796875 -13.5625 L 15.328125 -13.5625 L 15.328125 -21 Z M 22.40625 -21" transform="translate(140.84 256.915)"/></g></g></g><g fill="#0E4D72"><g><g><path d="M 12.71875 0.484375 C 10.457031 0.484375 8.425781 0.015625 6.625 -0.921875 C 4.832031 -1.867188 3.425781 -3.175781 2.40625 -4.84375 C 1.382812 -6.507812 0.875 -8.394531 0.875 -10.5 C 0.875 -12.601562 1.382812 -14.488281 2.40625 -16.15625 C 3.425781 -17.820312 4.832031 -19.125 6.625 -20.0625 C 8.425781 -21.007812 10.457031 -21.484375 12.71875 -21.484375 C 14.976562 -21.484375 17.007812 -21.007812 18.8125 -20.0625 C 20.613281 -19.125 22.019531 -17.820312 23.03125 -16.15625 C 24.050781 -14.488281 24.5625 -12.601562 24.5625 -10.5 C 24.5625 -8.394531 24.050781 -6.507812 23.03125 -4.84375 C 22.019531 -3.175781 20.613281 -1.867188 18.8125 -0.921875 C 17.007812 0.015625 14.976562 0.484375 12.71875 0.484375 Z M 12.71875 -5.25 C 13.601562 -5.25 14.398438 -5.460938 15.109375 -5.890625 C 15.816406 -6.328125 16.378906 -6.9375 16.796875 -7.71875 C 17.222656 -8.507812 17.4375 -9.4375 17.4375 -10.5 C 17.4375 -11.5625 17.222656 -12.484375 16.796875 -13.265625 C 16.378906 -14.054688 15.816406 -14.664062 15.109375 -15.09375 C 14.398438 -15.53125 13.601562 -15.75 12.71875 -15.75 C 11.84375 -15.75 11.046875 -15.53125 10.328125 -15.09375 C 9.617188 -14.664062 9.054688 -14.054688 8.640625 -13.265625 C 8.222656 -12.484375 8.015625 -11.5625 8.015625 -10.5 C 8.015625 -9.4375 8.222656 -8.507812 8.640625 -7.71875 C 9.054688 -6.9375 9.617188 -6.328125 10.328125 -5.890625 C 11.046875 -5.460938 11.84375 -5.25 12.71875 -5.25 Z M 12.71875 -5.25" transform="translate(172.04 256.915)"/></g></g></g><g fill="#0E4D72"><g><g><path d="M 16.015625 -3.65625 L 8.046875 -3.65625 L 6.625 0 L -0.5625 0 L 8.609375 -21 L 15.5625 -21 L 24.75 0 L 17.4375 0 Z M 14.0625 -8.765625 L 12.03125 -14.046875 L 9.984375 -8.765625 Z M 14.0625 -8.765625" transform="translate(220.64 256.915)"/></g></g></g><g fill="#0E4D72"><g><g><path d="M 1.703125 -21 L 8.796875 -21 L 8.796875 0 L 1.703125 0 Z M 1.703125 -21" transform="translate(251.9 256.915)"/></g></g></g><g fill="#0E4D72"><g><g><path d="M 10.703125 -5.28125 L 8.796875 -5.28125 L 8.796875 0 L 1.703125 0 L 1.703125 -21 L 11.8125 -21 C 13.757812 -21 15.453125 -20.675781 16.890625 -20.03125 C 18.328125 -19.394531 19.4375 -18.476562 20.21875 -17.28125 C 21 -16.082031 21.390625 -14.679688 21.390625 -13.078125 C 21.390625 -11.578125 21.046875 -10.265625 20.359375 -9.140625 C 19.679688 -8.023438 18.707031 -7.140625 17.4375 -6.484375 L 21.84375 0 L 14.28125 0 Z M 14.25 -13.078125 C 14.25 -13.859375 14.007812 -14.460938 13.53125 -14.890625 C 13.050781 -15.328125 12.332031 -15.546875 11.375 -15.546875 L 8.796875 -15.546875 L 8.796875 -10.625 L 11.375 -10.625 C 12.332031 -10.625 13.050781 -10.835938 13.53125 -11.265625 C 14.007812 -11.691406 14.25 -12.296875 14.25 -13.078125 Z M 14.25 -13.078125" transform="translate(269.48 256.915)"/></g></g></g><g fill="#44007E"><g><g><path d="M 8.328125 -3.75 L 4.15625 -3.75 L 2.921875 0 L 0.265625 0 L 4.75 -12.421875 L 7.859375 -12.421875 L 12.265625 0 L 9.5625 0 Z M 6.265625 -10.296875 L 4.78125 -5.703125 L 7.703125 -5.703125 Z M 6.265625 -10.296875" transform="translate(81.152 287.36)"/></g></g></g><g fill="#44007E"><g><g><path d="M 10.203125 -9.578125 L 6.5 0 L 3.71875 0 L 0 -9.578125 L 2.75 -9.578125 L 5.171875 -1.875 L 7.53125 -9.578125 Z M 10.203125 -9.578125" transform="translate(97.272 287.36)"/></g></g></g><g fill="#44007E"><g><g><path d="M 1.390625 -12.765625 C 1.640625 -13.015625 1.96875 -13.140625 2.375 -13.140625 C 2.78125 -13.140625 3.109375 -13.015625 3.359375 -12.765625 C 3.617188 -12.523438 3.75 -12.210938 3.75 -11.828125 C 3.75 -11.429688 3.617188 -11.113281 3.359375 -10.875 C 3.109375 -10.632812 2.78125 -10.515625 2.375 -10.515625 C 1.96875 -10.515625 1.640625 -10.632812 1.390625 -10.875 C 1.140625 -11.113281 1.015625 -11.429688 1.015625 -11.828125 C 1.015625 -12.210938 1.140625 -12.523438 1.390625 -12.765625 Z M 3.625 0 L 1.140625 0 L 1.140625 -9.578125 L 3.625 -9.578125 Z M 3.625 0" transform="translate(111.413 287.36)"/></g></g></g><g fill="#44007E"><g><g><path d="M 6.703125 0 L 6.515625 -1.40625 L 6.046875 -0.375 C 5.421875 0.0390625 4.628906 0.25 3.671875 0.25 C 2.796875 0.25 2.0625 0.00390625 1.46875 -0.484375 C 0.882812 -0.972656 0.59375 -1.65625 0.59375 -2.53125 C 0.59375 -3.59375 1.039062 -4.40625 1.9375 -4.96875 C 2.832031 -5.539062 4.144531 -5.828125 5.875 -5.828125 L 6.484375 -5.828125 L 6.484375 -6.03125 C 6.484375 -6.414062 6.46875 -6.71875 6.4375 -6.9375 C 6.351562 -7.695312 5.863281 -8.078125 4.96875 -8.078125 C 3.96875 -8.078125 3.429688 -7.539062 3.359375 -6.46875 L 0.953125 -6.4375 C 0.992188 -7.5 1.394531 -8.328125 2.15625 -8.921875 C 2.914062 -9.523438 3.882812 -9.828125 5.0625 -9.828125 C 7.445312 -9.828125 8.722656 -8.882812 8.890625 -7 C 8.929688 -6.539062 8.953125 -6.050781 8.953125 -5.53125 L 8.953125 -2.4375 C 8.953125 -1.695312 9.007812 -0.882812 9.125 0 Z M 4.625 -1.5 C 5.15625 -1.5 5.597656 -1.675781 5.953125 -2.03125 C 6.304688 -2.394531 6.484375 -2.894531 6.484375 -3.53125 L 6.484375 -4.296875 C 4.273438 -4.453125 3.171875 -3.929688 3.171875 -2.734375 C 3.171875 -1.910156 3.65625 -1.5 4.625 -1.5 Z M 4.625 -1.5" transform="translate(120.158 287.36)"/></g></g></g><g fill="#44007E"><g><g><path d="M 4.109375 -7.859375 L 4.109375 -3.4375 C 4.109375 -3.039062 4.113281 -2.757812 4.125 -2.59375 C 4.15625 -2.125 4.289062 -1.816406 4.53125 -1.671875 C 4.769531 -1.535156 5.234375 -1.492188 5.921875 -1.546875 L 5.921875 0.078125 C 5.398438 0.160156 4.851562 0.203125 4.28125 0.203125 C 3.375 0.203125 2.722656 0.0507812 2.328125 -0.25 C 1.941406 -0.5625 1.71875 -1.066406 1.65625 -1.765625 C 1.632812 -2.054688 1.625 -2.519531 1.625 -3.15625 L 1.625 -7.859375 L 0.21875 -7.859375 L 0.21875 -9.5 L 1.625 -9.5 L 1.625 -11.859375 L 4.109375 -11.859375 L 4.109375 -9.5 L 6.078125 -9.5 L 6.078125 -7.859375 Z M 4.109375 -7.859375" transform="translate(134.228 287.36)"/></g></g></g><g fill="#44007E"><g><g><path d="M 1.390625 -12.765625 C 1.640625 -13.015625 1.96875 -13.140625 2.375 -13.140625 C 2.78125 -13.140625 3.109375 -13.015625 3.359375 -12.765625 C 3.617188 -12.523438 3.75 -12.210938 3.75 -11.828125 C 3.75 -11.429688 3.617188 -11.113281 3.359375 -10.875 C 3.109375 -10.632812 2.78125 -10.515625 2.375 -10.515625 C 1.96875 -10.515625 1.640625 -10.632812 1.390625 -10.875 C 1.140625 -11.113281 1.015625 -11.429688 1.015625 -11.828125 C 1.015625 -12.210938 1.140625 -12.523438 1.390625 -12.765625 Z M 3.625 0 L 1.140625 0 L 1.140625 -9.578125 L 3.625 -9.578125 Z M 3.625 0" transform="translate(144.681 287.36)"/></g></g></g><g fill="#44007E"><g><g><path d="M 1.796875 -8.421875 C 2.671875 -9.359375 3.890625 -9.828125 5.453125 -9.828125 C 7.015625 -9.828125 8.234375 -9.359375 9.109375 -8.421875 C 9.984375 -7.492188 10.421875 -6.28125 10.421875 -4.78125 C 10.421875 -3.300781 9.984375 -2.09375 9.109375 -1.15625 C 8.234375 -0.21875 7.015625 0.25 5.453125 0.25 C 3.890625 0.25 2.671875 -0.21875 1.796875 -1.15625 C 0.921875 -2.09375 0.484375 -3.300781 0.484375 -4.78125 C 0.484375 -6.28125 0.921875 -7.492188 1.796875 -8.421875 Z M 3.703125 -2.359375 C 4.128906 -1.785156 4.710938 -1.5 5.453125 -1.5 C 6.191406 -1.5 6.773438 -1.785156 7.203125 -2.359375 C 7.628906 -2.941406 7.84375 -3.75 7.84375 -4.78125 C 7.84375 -5.820312 7.628906 -6.628906 7.203125 -7.203125 C 6.773438 -7.785156 6.191406 -8.078125 5.453125 -8.078125 C 4.710938 -8.078125 4.128906 -7.785156 3.703125 -7.203125 C 3.273438 -6.628906 3.0625 -5.820312 3.0625 -4.78125 C 3.0625 -3.75 3.273438 -2.941406 3.703125 -2.359375 Z M 3.703125 -2.359375" transform="translate(153.426 287.36)"/></g></g></g><g fill="#44007E"><g><g><path d="M 10.0625 -7.140625 C 10.113281 -6.710938 10.140625 -6.132812 10.140625 -5.40625 L 10.140625 0 L 7.65625 0 L 7.65625 -5.0625 C 7.65625 -5.625 7.640625 -6.066406 7.609375 -6.390625 C 7.523438 -7.515625 6.914062 -8.078125 5.78125 -8.078125 C 5.132812 -8.078125 4.613281 -7.773438 4.21875 -7.171875 C 3.820312 -6.566406 3.625 -5.632812 3.625 -4.375 L 3.625 0 L 1.140625 0 L 1.140625 -9.578125 L 3.625 -9.578125 L 3.625 -8.03125 L 4.359375 -9.15625 C 4.984375 -9.601562 5.75 -9.828125 6.65625 -9.828125 C 7.664062 -9.828125 8.460938 -9.59375 9.046875 -9.125 C 9.628906 -8.65625 9.96875 -7.992188 10.0625 -7.140625 Z M 10.0625 -7.140625" transform="translate(168.287 287.36)"/></g></g></g><g fill="#44007E"><g><g><path d="M 6.703125 0 L 6.515625 -1.40625 L 6.046875 -0.375 C 5.421875 0.0390625 4.628906 0.25 3.671875 0.25 C 2.796875 0.25 2.0625 0.00390625 1.46875 -0.484375 C 0.882812 -0.972656 0.59375 -1.65625 0.59375 -2.53125 C 0.59375 -3.59375 1.039062 -4.40625 1.9375 -4.96875 C 2.832031 -5.539062 4.144531 -5.828125 5.875 -5.828125 L 6.484375 -5.828125 L 6.484375 -6.03125 C 6.484375 -6.414062 6.46875 -6.71875 6.4375 -6.9375 C 6.351562 -7.695312 5.863281 -8.078125 4.96875 -8.078125 C 3.96875 -8.078125 3.429688 -7.539062 3.359375 -6.46875 L 0.953125 -6.4375 C 0.992188 -7.5 1.394531 -8.328125 2.15625 -8.921875 C 2.914062 -9.523438 3.882812 -9.828125 5.0625 -9.828125 C 7.445312 -9.828125 8.722656 -8.882812 8.890625 -7 C 8.929688 -6.539062 8.953125 -6.050781 8.953125 -5.53125 L 8.953125 -2.4375 C 8.953125 -1.695312 9.007812 -0.882812 9.125 0 Z M 4.625 -1.5 C 5.15625 -1.5 5.597656 -1.675781 5.953125 -2.03125 C 6.304688 -2.394531 6.484375 -2.894531 6.484375 -3.53125 L 6.484375 -4.296875 C 4.273438 -4.453125 3.171875 -3.929688 3.171875 -2.734375 C 3.171875 -1.910156 3.65625 -1.5 4.625 -1.5 Z M 4.625 -1.5" transform="translate(190.867 287.36)"/></g></g></g><g fill="#44007E"><g><g><path d="M 5.828125 -10.34375 L 4.421875 -10.34375 L 5.828125 -12.46875 L 8.0625 -12.46875 Z M 9.828125 -4.984375 C 9.828125 -4.640625 9.816406 -4.359375 9.796875 -4.140625 L 2.984375 -4.140625 C 3.128906 -2.378906 3.867188 -1.5 5.203125 -1.5 C 5.742188 -1.5 6.191406 -1.640625 6.546875 -1.921875 C 6.898438 -2.210938 7.117188 -2.609375 7.203125 -3.109375 L 9.6875 -3.109375 C 9.445312 -2.015625 8.921875 -1.179688 8.109375 -0.609375 C 7.296875 -0.0351562 6.304688 0.25 5.140625 0.25 C 3.765625 0.25 2.644531 -0.175781 1.78125 -1.03125 C 0.914062 -1.894531 0.484375 -3.132812 0.484375 -4.75 C 0.484375 -6.238281 0.929688 -7.457031 1.828125 -8.40625 C 2.722656 -9.351562 3.894531 -9.828125 5.34375 -9.828125 C 6.75 -9.828125 7.847656 -9.363281 8.640625 -8.4375 C 9.429688 -7.519531 9.828125 -6.367188 9.828125 -4.984375 Z M 5.234375 -8.078125 C 4.003906 -8.078125 3.28125 -7.304688 3.0625 -5.765625 L 7.265625 -5.765625 C 7.097656 -7.304688 6.421875 -8.078125 5.234375 -8.078125 Z M 5.234375 -8.078125" transform="translate(204.937 287.36)"/></g></g></g><g fill="#44007E"><g><g><path d="M 6.015625 -9.8125 C 6.285156 -9.8125 6.519531 -9.785156 6.71875 -9.734375 L 6.71875 -7.734375 C 5.65625 -7.804688 4.875 -7.582031 4.375 -7.0625 C 3.875 -6.539062 3.625 -5.648438 3.625 -4.390625 L 3.625 0 L 1.140625 0 L 1.140625 -9.578125 L 3.625 -9.578125 L 3.625 -7.828125 L 4.375 -9.15625 C 4.84375 -9.59375 5.390625 -9.8125 6.015625 -9.8125 Z M 6.015625 -9.8125" transform="translate(219.294 287.36)"/></g></g></g><g fill="#44007E"><g><g><path d="M 1.390625 -12.765625 C 1.640625 -13.015625 1.96875 -13.140625 2.375 -13.140625 C 2.78125 -13.140625 3.109375 -13.015625 3.359375 -12.765625 C 3.617188 -12.523438 3.75 -12.210938 3.75 -11.828125 C 3.75 -11.429688 3.617188 -11.113281 3.359375 -10.875 C 3.109375 -10.632812 2.78125 -10.515625 2.375 -10.515625 C 1.96875 -10.515625 1.640625 -10.632812 1.390625 -10.875 C 1.140625 -11.113281 1.015625 -11.429688 1.015625 -11.828125 C 1.015625 -12.210938 1.140625 -12.523438 1.390625 -12.765625 Z M 3.625 0 L 1.140625 0 L 1.140625 -9.578125 L 3.625 -9.578125 Z M 3.625 0" transform="translate(230.09 287.36)"/></g></g></g><g fill="#44007E"><g><g><path d="M 9.828125 -4.984375 C 9.828125 -4.640625 9.816406 -4.359375 9.796875 -4.140625 L 2.984375 -4.140625 C 3.128906 -2.378906 3.867188 -1.5 5.203125 -1.5 C 5.742188 -1.5 6.191406 -1.640625 6.546875 -1.921875 C 6.898438 -2.210938 7.117188 -2.609375 7.203125 -3.109375 L 9.6875 -3.109375 C 9.445312 -2.015625 8.921875 -1.179688 8.109375 -0.609375 C 7.296875 -0.0351562 6.304688 0.25 5.140625 0.25 C 3.765625 0.25 2.644531 -0.175781 1.78125 -1.03125 C 0.914062 -1.894531 0.484375 -3.132812 0.484375 -4.75 C 0.484375 -6.238281 0.929688 -7.457031 1.828125 -8.40625 C 2.722656 -9.351562 3.894531 -9.828125 5.34375 -9.828125 C 6.75 -9.828125 7.847656 -9.363281 8.640625 -8.4375 C 9.429688 -7.519531 9.828125 -6.367188 9.828125 -4.984375 Z M 5.234375 -8.078125 C 4.003906 -8.078125 3.28125 -7.304688 3.0625 -5.765625 L 7.265625 -5.765625 C 7.097656 -7.304688 6.421875 -8.078125 5.234375 -8.078125 Z M 5.234375 -8.078125" transform="translate(238.834 287.36)"/></g></g></g><g fill="#44007E"><g><g><path d="M 10.0625 -7.140625 C 10.113281 -6.710938 10.140625 -6.132812 10.140625 -5.40625 L 10.140625 0 L 7.65625 0 L 7.65625 -5.0625 C 7.65625 -5.625 7.640625 -6.066406 7.609375 -6.390625 C 7.523438 -7.515625 6.914062 -8.078125 5.78125 -8.078125 C 5.132812 -8.078125 4.613281 -7.773438 4.21875 -7.171875 C 3.820312 -6.566406 3.625 -5.632812 3.625 -4.375 L 3.625 0 L 1.140625 0 L 1.140625 -9.578125 L 3.625 -9.578125 L 3.625 -8.03125 L 4.359375 -9.15625 C 4.984375 -9.601562 5.75 -9.828125 6.65625 -9.828125 C 7.664062 -9.828125 8.460938 -9.59375 9.046875 -9.125 C 9.628906 -8.65625 9.96875 -7.992188 10.0625 -7.140625 Z M 10.0625 -7.140625" transform="translate(253.192 287.36)"/></g></g></g><g fill="#44007E"><g><g><path d="M 10.0625 -7.140625 C 10.113281 -6.710938 10.140625 -6.132812 10.140625 -5.40625 L 10.140625 0 L 7.65625 0 L 7.65625 -5.0625 C 7.65625 -5.625 7.640625 -6.066406 7.609375 -6.390625 C 7.523438 -7.515625 6.914062 -8.078125 5.78125 -8.078125 C 5.132812 -8.078125 4.613281 -7.773438 4.21875 -7.171875 C 3.820312 -6.566406 3.625 -5.632812 3.625 -4.375 L 3.625 0 L 1.140625 0 L 1.140625 -9.578125 L 3.625 -9.578125 L 3.625 -8.03125 L 4.359375 -9.15625 C 4.984375 -9.601562 5.75 -9.828125 6.65625 -9.828125 C 7.664062 -9.828125 8.460938 -9.59375 9.046875 -9.125 C 9.628906 -8.65625 9.96875 -7.992188 10.0625 -7.140625 Z M 10.0625 -7.140625" transform="translate(268.322 287.36)"/></g></g></g><g fill="#44007E"><g><g><path d="M 9.828125 -4.984375 C 9.828125 -4.640625 9.816406 -4.359375 9.796875 -4.140625 L 2.984375 -4.140625 C 3.128906 -2.378906 3.867188 -1.5 5.203125 -1.5 C 5.742188 -1.5 6.191406 -1.640625 6.546875 -1.921875 C 6.898438 -2.210938 7.117188 -2.609375 7.203125 -3.109375 L 9.6875 -3.109375 C 9.445312 -2.015625 8.921875 -1.179688 8.109375 -0.609375 C 7.296875 -0.0351562 6.304688 0.25 5.140625 0.25 C 3.765625 0.25 2.644531 -0.175781 1.78125 -1.03125 C 0.914062 -1.894531 0.484375 -3.132812 0.484375 -4.75 C 0.484375 -6.238281 0.929688 -7.457031 1.828125 -8.40625 C 2.722656 -9.351562 3.894531 -9.828125 5.34375 -9.828125 C 6.75 -9.828125 7.847656 -9.363281 8.640625 -8.4375 C 9.429688 -7.519531 9.828125 -6.367188 9.828125 -4.984375 Z M 5.234375 -8.078125 C 4.003906 -8.078125 3.28125 -7.304688 3.0625 -5.765625 L 7.265625 -5.765625 C 7.097656 -7.304688 6.421875 -8.078125 5.234375 -8.078125 Z M 5.234375 -8.078125" transform="translate(283.453 287.36)"/></g></g></g></svg>